<svg xmlns="http://www.w3.org/2000/svg" shape-rendering="crispEdges"><symbol id="seed" viewBox="0 0 32 32" shape-rendering="crispEdges"><rect x="6" y="26" width="20" height="2" fill="#785d43"/><rect x="10" y="24" width="12" height="2" fill="#9b774e"/><path d="M12 15H15V12H20V15H22V22H19V25H14V23H11V18H12Z" fill="#876f4e"/><rect x="14" y="16" width="3" height="6" fill="#b99b70"/><rect x="17" y="14" width="2" height="3" fill="#dfcda1"/><rect x="6" y="27" width="3" height="1" fill="#b99b70"/><rect x="25" y="27" width="2" height="1" fill="#b99b70"/></symbol><symbol id="sprout" viewBox="0 0 32 32" shape-rendering="crispEdges"><rect x="6" y="27" width="20" height="2" fill="#785d43"/><rect x="9" y="25" width="14" height="2" fill="#9b774e"/><rect x="15" y="14" width="2" height="12" fill="#506746"/><path d="M15 19H10V17H7V12H12V14H15Z" fill="#788b55"/><path d="M17 14V10H21V7H27V11H24V14H20V17H17Z" fill="#506746"/><rect x="19" y="10" width="5" height="2" fill="#a5b77a"/><rect x="9" y="14" width="3" height="2" fill="#a5b77a"/><rect x="13" y="25" width="6" height="1" fill="#b99b70"/></symbol><symbol id="carrot" viewBox="0 0 32 32" shape-rendering="crispEdges"><path d="M12 12H21V15H23V20H20V24H17V28H13V25H11V21H9V16H12Z" fill="#876f4e"/><path d="M13 13H20V16H21V20H18V24H15V27H13V23H11V17H13Z" fill="#d4914f"/><rect x="12" y="16" width="3" height="2" fill="#dab367"/><rect x="17" y="19" width="4" height="1" fill="#c8795b"/><rect x="13" y="22" width="4" height="1" fill="#c8795b"/><path d="M15 13V8H11V6H9V2H13V5H17V11H18V6H21V3H25V6H22V10H19V13Z" fill="#506746"/><rect x="14" y="6" width="2" height="4" fill="#788b55"/><rect x="20" y="6" width="2" height="3" fill="#a5b77a"/></symbol><symbol id="radish" viewBox="0 0 32 32" shape-rendering="crispEdges"><path d="M10 11H22V14H25V22H22V26H18V29H16V31H14V27H10V24H7V16H10Z" fill="#b76168"/><rect x="10" y="15" width="13" height="8" fill="#cd8280"/><rect x="11" y="14" width="7" height="2" fill="#e3a084"/><rect x="10" y="22" width="12" height="3" fill="#f4edda"/><rect x="13" y="25" width="6" height="3" fill="#f4edda"/><rect x="16" y="28" width="2" height="2" fill="#b99b70"/><path d="M15 12V6H11V3H14V5H17V9H19V5H23V2H26V6H22V9H20V12Z" fill="#506746"/><rect x="20" y="5" width="3" height="2" fill="#a5b77a"/><rect x="10" y="17" width="2" height="3" fill="#e3a084"/></symbol><symbol id="pumpkin" viewBox="0 0 32 32" shape-rendering="crispEdges"><path d="M9 12H23V14H27V18H29V24H26V28H22V30H9V28H5V24H3V18H6V14H9Z" fill="#876f4e"/><path d="M9 14H23V16H26V19H27V23H24V27H21V28H10V27H7V23H5V19H8V16H9Z" fill="#c8795b"/><rect x="12" y="13" width="8" height="16" fill="#d4914f"/><rect x="15" y="14" width="3" height="13" fill="#dab367"/><rect x="8" y="17" width="2" height="7" fill="#d4914f"/><rect x="22" y="17" width="2" height="7" fill="#e3a084"/><rect x="14" y="8" width="4" height="6" fill="#876f4e"/><rect x="16" y="5" width="4" height="5" fill="#506746"/><rect x="19" y="5" width="4" height="2" fill="#506746"/><rect x="10" y="9" width="5" height="3" fill="#788b55"/></symbol><symbol id="flower" viewBox="0 0 32 32" shape-rendering="crispEdges"><rect x="15" y="14" width="2" height="15" fill="#506746"/><path d="M15 23H10V21H7V17H12V19H15Z" fill="#788b55"/><path d="M17 25V21H21V18H26V22H22V25Z" fill="#506746"/><path d="M12 3H18V6H23V12H20V17H13V15H8V10H10V6H12Z" fill="#c8795b"/><rect x="13" y="4" width="4" height="4" fill="#e3a084"/><rect x="9" y="9" width="5" height="3" fill="#e3a084"/><rect x="18" y="8" width="4" height="4" fill="#e3a084"/><rect x="14" y="10" width="5" height="5" fill="#dab367"/><rect x="15" y="10" width="3" height="2" fill="#f4edda"/><rect x="21" y="20" width="3" height="2" fill="#a5b77a"/></symbol><symbol id="berry" viewBox="0 0 32 32" shape-rendering="crispEdges"><rect x="14" y="13" width="3" height="16" fill="#876f4e"/><path d="M5 13H9V8H14V5H21V8H26V13H28V21H24V25H8V23H4V17Z" fill="#506746"/><path d="M8 13H12V9H20V11H24V16H22V20H13V22H8V19Z" fill="#788b55"/><rect x="11" y="11" width="4" height="2" fill="#a5b77a"/><rect x="20" y="15" width="4" height="2" fill="#a5b77a"/><rect x="8" y="18" width="4" height="4" fill="#b76168"/><rect x="16" y="20" width="4" height="4" fill="#b76168"/><rect x="21" y="10" width="4" height="4" fill="#b76168"/><rect x="9" y="18" width="1" height="1" fill="#e3a084"/><rect x="17" y="20" width="1" height="1" fill="#e3a084"/><rect x="22" y="10" width="1" height="1" fill="#e3a084"/><rect x="13" y="28" width="6" height="2" fill="#b99b70"/></symbol><symbol id="tree" viewBox="0 0 32 32" shape-rendering="crispEdges"><path d="M14 19H19V27H22V30H16V28H10V30H8V28H14Z" fill="#876f4e"/><rect x="15" y="19" width="2" height="8" fill="#b99b70"/><path d="M6 19H3V11H6V6H10V3H20V5H26V11H29V18H26V22H20V24H11V22H6Z" fill="#374f3c"/><path d="M6 12H8V7H13V5H19V8H24V12H26V17H23V20H16V22H11V20H7Z" fill="#506746"/><path d="M9 9H13V6H18V9H22V13H19V16H12V14H8V11H9Z" fill="#788b55"/><rect x="12" y="8" width="5" height="2" fill="#a5b77a"/><rect x="7" y="17" width="3" height="2" fill="#788b55"/><rect x="21" y="17" width="3" height="2" fill="#788b55"/></symbol><symbol id="mushroom" viewBox="0 0 32 32" shape-rendering="crispEdges"><rect x="11" y="18" width="10" height="11" fill="#b99b70"/><rect x="13" y="18" width="6" height="10" fill="#f4edda"/><rect x="10" y="28" width="12" height="2" fill="#876f4e"/><path d="M3 16H5V11H9V7H13V4H20V7H24V11H27V16H29V20H3Z" fill="#876f4e"/><path d="M4 15H7V11H10V8H14V6H19V9H23V12H25V16H28V18H4Z" fill="#c8795b"/><rect x="10" y="11" width="4" height="3" fill="#dfcda1"/><rect x="17" y="8" width="3" height="2" fill="#dfcda1"/><rect x="20" y="14" width="4" height="2" fill="#f4edda"/><rect x="5" y="18" width="22" height="2" fill="#b99b70"/><rect x="14" y="21" width="2" height="4" fill="#dfcda1"/></symbol><symbol id="books" viewBox="0 0 32 32" shape-rendering="crispEdges"><rect x="5" y="25" width="24" height="4" fill="#876f4e"/><rect x="6" y="24" width="22" height="3" fill="#dfcda1"/><rect x="6" y="22" width="22" height="2" fill="#c8795b"/><rect x="7" y="20" width="17" height="2" fill="#876f4e"/><rect x="8" y="17" width="15" height="3" fill="#f4edda"/><rect x="7" y="15" width="18" height="2" fill="#235d58"/><rect x="4" y="14" width="20" height="2" fill="#235d58"/><rect x="7" y="6" width="5" height="9" fill="#876f4e"/><rect x="8" y="5" width="3" height="9" fill="#e3a084"/><rect x="13" y="3" width="6" height="12" fill="#506746"/><rect x="14" y="4" width="4" height="2" fill="#dab367"/><rect x="14" y="11" width="4" height="1" fill="#a5b77a"/><rect x="21" y="5" width="4" height="10" fill="#876f4e"/><rect x="22" y="5" width="3" height="9" fill="#dab367"/><rect x="6" y="26" width="2" height="1" fill="#f4edda"/><rect x="12" y="24" width="13" height="1" fill="#f4edda"/></symbol><symbol id="watering-can" viewBox="0 0 32 32" shape-rendering="crispEdges"><path d="M11 10H23V13H26V26H23V29H10V26H7V16H4V14H2V9H5V12H10Z" fill="#235d58"/><rect x="10" y="15" width="14" height="11" fill="#398277"/><rect x="11" y="15" width="3" height="8" fill="#73a797"/><rect x="8" y="12" width="16" height="3" fill="#b4d1b0"/><rect x="13" y="10" width="7" height="2" fill="#235d58"/><rect x="11" y="10" width="3" height="2" fill="#73a797"/><path d="M24 12V8H29V12H31V20H29V23H25V20H28V17H29V12H27V10H26V12Z" fill="#876f4e"/><rect x="1" y="7" width="5" height="3" fill="#73a797"/><rect x="0" y="8" width="2" height="4" fill="#235d58"/><rect x="20" y="25" width="4" height="2" fill="#235d58"/></symbol><symbol id="fish-blue" viewBox="0 0 32 32" shape-rendering="crispEdges"><path d="M8 13H11V9H17V7H22V10H26V13H29V20H26V23H19V25H14V23H10V20H7V24H3V9H6V13Z" fill="#235d58"/><path d="M10 14H13V11H21V12H25V15H27V19H23V22H15V20H11V18H7V20H5V13H7V15H10Z" fill="#72a9ad"/><rect x="14" y="10" width="6" height="2" fill="#73a797"/><rect x="13" y="14" width="8" height="3" fill="#b4d1b0"/><rect x="16" y="18" width="3" height="4" fill="#398277"/><rect x="23" y="14" width="2" height="2" fill="#2c453b"/><rect x="24" y="14" width="1" height="1" fill="#f4edda"/><rect x="14" y="7" width="5" height="2" fill="#c8795b"/><rect x="18" y="23" width="5" height="2" fill="#c8795b"/></symbol><symbol id="fish-orange" viewBox="0 0 32 32" shape-rendering="crispEdges"><path d="M8 13H12V9H18V7H22V10H26V13H29V20H25V24H17V26H12V22H8V19H6V23H2V10H6V13Z" fill="#876f4e"/><path d="M9 14H13V11H21V12H25V15H27V19H23V22H15V21H12V18H7V20H4V13H6V16H9Z" fill="#d4914f"/><rect x="14" y="11" width="3" height="10" fill="#f4edda"/><rect x="21" y="13" width="2" height="8" fill="#e3a084"/><rect x="17" y="13" width="4" height="2" fill="#dab367"/><rect x="25" y="15" width="2" height="2" fill="#2c453b"/><rect x="25" y="15" width="1" height="1" fill="#f4edda"/><rect x="16" y="8" width="5" height="2" fill="#c8795b"/><rect x="17" y="24" width="5" height="2" fill="#c8795b"/></symbol><symbol id="jellyfish" viewBox="0 0 32 32" shape-rendering="crispEdges"><path d="M7 15V9H10V5H14V3H20V5H24V9H26V17H23V20H10V18H7Z" fill="#235d58"/><path d="M9 14V9H12V6H20V8H23V11H24V16H9Z" fill="#72a9ad"/><rect x="12" y="7" width="4" height="2" fill="#b4d1b0"/><rect x="10" y="14" width="14" height="3" fill="#73a797"/><rect x="10" y="17" width="3" height="3" fill="#b4d1b0"/><rect x="15" y="17" width="3" height="3" fill="#b4d1b0"/><rect x="20" y="17" width="3" height="3" fill="#b4d1b0"/><path d="M11 20H13V25H11V28H13V30H10V27H9V24H11Z" fill="#73a797"/><path d="M16 20H18V24H20V28H18V31H16V28H18V25H16Z" fill="#b4d1b0"/><path d="M21 20H23V24H25V27H23V29H21V27H23V24H21Z" fill="#72a9ad"/></symbol><symbol id="seahorse" viewBox="0 0 32 32" shape-rendering="crispEdges"><path d="M14 4H21V7H24V9H29V12H24V14H21V19H23V23H21V28H17V31H11V28H8V24H11V23H15V25H12V27H16V26H18V22H14V19H11V14H12V8H14Z" fill="#876f4e"/><path d="M15 6H20V9H23V11H20V16H18V18H21V22H19V27H16V29H12V27H10V25H12V26H14V27H16V24H17V22H14V18H13V12H14V9H15Z" fill="#dab367"/><rect x="15" y="9" width="3" height="3" fill="#d4914f"/><rect x="19" y="8" width="2" height="2" fill="#2c453b"/><rect x="20" y="8" width="1" height="1" fill="#f4edda"/><rect x="24" y="10" width="4" height="2" fill="#d4914f"/><rect x="11" y="14" width="2" height="6" fill="#c8795b"/><rect x="15" y="17" width="3" height="2" fill="#dfcda1"/><rect x="17" y="21" width="3" height="1" fill="#dfcda1"/><rect x="13" y="2" width="3" height="4" fill="#c8795b"/></symbol><symbol id="crab" viewBox="0 0 32 32" shape-rendering="crispEdges"><path d="M8 17H24V19H27V24H24V27H8V25H5V20H8Z" fill="#876f4e"/><rect x="9" y="18" width="14" height="7" fill="#c8795b"/><rect x="11" y="18" width="10" height="2" fill="#e3a084"/><rect x="11" y="14" width="2" height="5" fill="#c8795b"/><rect x="20" y="14" width="2" height="5" fill="#c8795b"/><rect x="11" y="13" width="2" height="2" fill="#2c453b"/><rect x="20" y="13" width="2" height="2" fill="#2c453b"/><path d="M8 19H5V16H2V10H4V13H7V8H9V15H6V17H9Z" fill="#c8795b"/><path d="M23 19H27V16H30V10H28V13H25V8H23V15H26V17H23Z" fill="#c8795b"/><rect x="3" y="11" width="1" height="2" fill="#e3a084"/><rect x="26" y="11" width="1" height="2" fill="#e3a084"/><path d="M7 24H3V27H1V29H4V27H8V29H6V31H9V28H12V26H7Z" fill="#876f4e"/><path d="M24 24H28V27H30V29H27V27H23V29H25V31H22V28H19V26H24Z" fill="#876f4e"/></symbol><symbol id="shrimp" viewBox="0 0 32 32" shape-rendering="crispEdges"><path d="M22 7H26V11H28V17H25V22H21V26H13V28H7V25H3V21H7V23H11V24H16V21H19V17H18V13H20V10H22Z" fill="#c8795b"/><path d="M21 12H25V17H22V21H18V24H12V26H8V24H14V22H18V19H20V16H19V14H21Z" fill="#e3a084"/><rect x="23" y="10" width="2" height="2" fill="#2c453b"/><rect x="20" y="14" width="4" height="1" fill="#f4edda"/><rect x="18" y="18" width="4" height="1" fill="#f4edda"/><rect x="15" y="22" width="3" height="1" fill="#f4edda"/><path d="M25 8H26V5H29V3H31V4H28V6H27V9Z" fill="#dfcda1"/><path d="M23 8H24V3H21V1H18V2H22V4H23Z" fill="#dfcda1"/><rect x="15" y="26" width="1" height="4" fill="#876f4e"/><rect x="19" y="24" width="1" height="5" fill="#876f4e"/><rect x="23" y="20" width="1" height="5" fill="#876f4e"/><rect x="2" y="19" width="4" height="3" fill="#e3a084"/></symbol><symbol id="coral" viewBox="0 0 32 32" shape-rendering="crispEdges"><path d="M13 29V20H8V17H4V11H2V6H5V9H7V14H10V10H12V5H15V10H13V17H15V21H18V15H21V12H19V7H22V11H25V7H28V13H24V17H21V23H23V28H27V30H7V29Z" fill="#b76168"/><path d="M15 28V19H10V17H7V14H10V16H13V18H17V23H19V26H22V28Z" fill="#c8795b"/><rect x="3" y="5" width="3" height="3" fill="#e3a084"/><rect x="10" y="3" width="3" height="4" fill="#e3a084"/><rect x="19" y="5" width="3" height="3" fill="#e3a084"/><rect x="26" y="5" width="3" height="3" fill="#e3a084"/><rect x="10" y="28" width="13" height="2" fill="#876f4e"/></symbol><symbol id="seaweed" viewBox="0 0 32 32" shape-rendering="crispEdges"><path d="M14 29V22H10V18H7V14H9V8H7V3H10V8H12V14H10V17H14V21H15V12H18V6H17V1H20V7H18V13H17V23H20V18H23V14H21V9H24V14H26V18H22V23H20V28H23V30H9V29Z" fill="#506746"/><rect x="15" y="15" width="2" height="13" fill="#788b55"/><rect x="18" y="7" width="1" height="5" fill="#a5b77a"/><rect x="9" y="10" width="1" height="4" fill="#a5b77a"/><rect x="22" y="16" width="2" height="3" fill="#788b55"/><rect x="10" y="28" width="12" height="2" fill="#876f4e"/></symbol><symbol id="shell" viewBox="0 0 32 32" shape-rendering="crispEdges"><path d="M4 20V14H7V10H11V7H20V9H25V13H28V20H25V23H23V26H9V24H6V22H4Z" fill="#876f4e"/><path d="M6 19V14H9V11H13V9H19V11H23V14H26V19H23V22H21V24H11V22H8V20Z" fill="#e3a084"/><rect x="14" y="10" width="3" height="12" fill="#f4edda"/><rect x="10" y="12" width="2" height="7" fill="#dfcda1"/><rect x="9" y="18" width="4" height="2" fill="#dfcda1"/><rect x="19" y="12" width="2" height="7" fill="#dfcda1"/><rect x="20" y="18" width="4" height="2" fill="#dfcda1"/><rect x="13" y="23" width="7" height="2" fill="#c8795b"/><rect x="10" y="25" width="13" height="2" fill="#b99b70"/></symbol><symbol id="bubbles" viewBox="0 0 32 32" shape-rendering="crispEdges"><path d="M5 20H7V18H12V20H14V25H12V27H7V25H5Z" fill="#73a797"/><rect x="7" y="20" width="5" height="5" fill="#235d58"/><rect x="7" y="20" width="2" height="2" fill="#b4d1b0"/><path d="M18 7H20V5H25V7H27V12H25V14H20V12H18Z" fill="#73a797"/><rect x="20" y="7" width="5" height="5" fill="#235d58"/><rect x="20" y="7" width="2" height="2" fill="#b4d1b0"/><rect x="11" y="3" width="3" height="3" fill="#73a797"/><rect x="11" y="3" width="1" height="1" fill="#f4edda"/><rect x="22" y="22" width="3" height="3" fill="#73a797"/><rect x="22" y="22" width="1" height="1" fill="#f4edda"/></symbol><symbol id="chest" viewBox="0 0 32 32" shape-rendering="crispEdges"><path d="M5 26V12H8V7H12V5H22V7H26V12H28V27H25V29H8V27Z" fill="#876f4e"/><rect x="8" y="14" width="17" height="12" fill="#9b774e"/><rect x="7" y="12" width="19" height="5" fill="#d4914f"/><rect x="10" y="8" width="13" height="4" fill="#c8795b"/><rect x="12" y="6" width="9" height="2" fill="#e3a084"/><rect x="8" y="18" width="17" height="2" fill="#785d43"/><rect x="10" y="8" width="2" height="18" fill="#dab367"/><rect x="22" y="8" width="2" height="18" fill="#dab367"/><rect x="7" y="25" width="19" height="2" fill="#785d43"/><rect x="15" y="16" width="6" height="6" fill="#dab367"/><rect x="17" y="18" width="2" height="3" fill="#876f4e"/><rect x="13" y="11" width="8" height="1" fill="#e3a084"/></symbol></svg>
